<svg width="19" height="17" viewBox="0 0 19 17" fill="none" xmlns="http://www.w3.org/2000/svg">
<path fill-rule="evenodd" clip-rule="evenodd" d="M0.96875 3.25C0.96875 1.80025 2.144 0.625 3.59375 0.625H15.4062C16.856 0.625 18.0312 1.80025 18.0312 3.25V13.75C18.0312 15.1997 16.856 16.375 15.4062 16.375H3.59375C2.144 16.375 0.96875 15.1997 0.96875 13.75V3.25ZM4.44221 4.09846C4.69849 3.84218 5.11401 3.84218 5.37029 4.09846L7.33904 6.06721C7.59532 6.32349 7.59532 6.73901 7.33904 6.99529L5.37029 8.96404C5.11401 9.22032 4.69849 9.22032 4.44221 8.96404C4.18593 8.70776 4.18593 8.29224 4.44221 8.03596L5.94692 6.53125L4.44221 5.02654C4.18593 4.77026 4.18593 4.35474 4.44221 4.09846ZM8.1875 7.84375C7.82506 7.84375 7.53125 8.13756 7.53125 8.5C7.53125 8.86244 7.82506 9.15625 8.1875 9.15625H10.8125C11.1749 9.15625 11.4688 8.86244 11.4688 8.5C11.4688 8.13756 11.1749 7.84375 10.8125 7.84375H8.1875Z" fill="#8281F8"/>
</svg>
