<svg width="19" height="15" viewBox="0 0 19 15" fill="none" xmlns="http://www.w3.org/2000/svg">
<path d="M17.375 0.9375H1.625C1.2769 0.9375 0.943064 1.07578 0.696922 1.32192C0.450781 1.56806 0.3125 1.9019 0.3125 2.25V4.94883V12.7418C0.3125 13.0899 0.450781 13.4237 0.696922 13.6699C0.943064 13.916 1.2769 14.0543 1.625 14.0543H17.375C17.7231 14.0543 18.0569 13.916 18.3031 13.6699C18.5492 13.4237 18.6875 13.0899 18.6875 12.7418V2.25C18.6875 1.9019 18.5492 1.56806 18.3031 1.32192C18.0569 1.07578 17.7231 0.9375 17.375 0.9375ZM10.1562 11.4375H8.84375C8.6697 11.4375 8.50278 11.3684 8.37971 11.2453C8.25664 11.1222 8.1875 10.9553 8.1875 10.7813C8.1875 10.6072 8.25664 10.4403 8.37971 10.3172C8.50278 10.1941 8.6697 10.125 8.84375 10.125H10.1562C10.3303 10.125 10.4972 10.1941 10.6203 10.3172C10.7434 10.4403 10.8125 10.6072 10.8125 10.7813C10.8125 10.9553 10.7434 11.1222 10.6203 11.2453C10.4972 11.3684 10.3303 11.4375 10.1562 11.4375ZM15.4062 11.4375H12.7812C12.6072 11.4375 12.4403 11.3684 12.3172 11.2453C12.1941 11.1222 12.125 10.9553 12.125 10.7813C12.125 10.6072 12.1941 10.4403 12.3172 10.3172C12.4403 10.1941 12.6072 10.125 12.7812 10.125H15.4062C15.5803 10.125 15.7472 10.1941 15.8703 10.3172C15.9934 10.4403 16.0625 10.6072 16.0625 10.7813C16.0625 10.9553 15.9934 11.1222 15.8703 11.2453C15.7472 11.3684 15.5803 11.4375 15.4062 11.4375ZM1.625 4.29258V2.25H17.375V4.29258H1.625Z" fill="#8281F8"/>
</svg>
