<svg width="16" height="14" viewBox="0 0 16 14" fill="none" xmlns="http://www.w3.org/2000/svg">
<path d="M3.37165 1.58126C3.58269 1.32578 3.54666 0.947597 3.29119 0.736556C3.03571 0.525515 2.65752 0.561538 2.44648 0.817014C1.72706 1.68792 1.20804 2.73175 0.961324 3.87743C0.891566 4.20138 1.09762 4.52054 1.42157 4.59029C1.74551 4.66005 2.06467 4.45399 2.13443 4.13005C2.33965 3.17709 2.77151 2.30776 3.37165 1.58126Z" fill="#EC8E6C"/>
<path d="M13.5534 0.817014C13.3424 0.561538 12.9642 0.525515 12.7087 0.736556C12.4532 0.947597 12.4172 1.32578 12.6283 1.58126C13.2284 2.30776 13.6603 3.17709 13.8655 4.13005C13.9352 4.45399 14.2544 4.66005 14.5783 4.59029C14.9023 4.52054 15.1083 4.20138 15.0386 3.87743C14.7919 2.73175 14.2728 1.68792 13.5534 0.817014Z" fill="#EC8E6C"/>
<path fill-rule="evenodd" clip-rule="evenodd" d="M8.00007 0.599805C5.3491 0.599805 3.20007 2.74884 3.20007 5.3998C3.20007 6.90911 2.83709 8.33188 2.19418 9.58725C2.10883 9.75392 2.10618 9.95087 2.18702 10.1198C2.26785 10.2887 2.42291 10.4102 2.60625 10.4482C3.4604 10.6256 4.32955 10.7616 5.21151 10.8542C5.34005 12.2814 6.53946 13.3998 8.0001 13.3998C9.46073 13.3998 10.6601 12.2814 10.7887 10.8542C11.6706 10.7616 12.5398 10.6256 13.3939 10.4482C13.5772 10.4102 13.7323 10.2887 13.8131 10.1198C13.894 9.95087 13.8913 9.75392 13.806 9.58725C13.1631 8.33188 12.8001 6.90911 12.8001 5.3998C12.8001 2.74884 10.651 0.599805 8.00007 0.599805ZM8.0001 12.1998C7.23831 12.1998 6.60087 11.6674 6.43954 10.9544C6.95592 10.9845 7.47624 10.9998 8.00007 10.9998C8.52392 10.9998 9.04426 10.9845 9.56066 10.9544C9.39933 11.6674 8.76188 12.1998 8.0001 12.1998Z" fill="#EC8E6C"/>
</svg>
