<svg width="19" height="19" viewBox="0 0 19 19" fill="none" xmlns="http://www.w3.org/2000/svg">
<path fill-rule="evenodd" clip-rule="evenodd" d="M0.96875 9.5C0.96875 4.78832 4.78832 0.96875 9.5 0.96875C14.2117 0.96875 18.0312 4.78832 18.0312 9.5C18.0312 14.2117 14.2117 18.0312 9.5 18.0312C4.78832 18.0312 0.96875 14.2117 0.96875 9.5ZM9.5 6.21875C9.86244 6.21875 10.1562 6.51256 10.1562 6.875V10.1562C10.1562 10.5187 9.86244 10.8125 9.5 10.8125C9.13756 10.8125 8.84375 10.5187 8.84375 10.1562V6.875C8.84375 6.51256 9.13756 6.21875 9.5 6.21875ZM9.5 13.4375C9.86244 13.4375 10.1562 13.1437 10.1562 12.7812C10.1562 12.4188 9.86244 12.125 9.5 12.125C9.13756 12.125 8.84375 12.4188 8.84375 12.7812C8.84375 13.1437 9.13756 13.4375 9.5 13.4375Z" fill="#8281F8"/>
</svg>
