<svg width="20" height="20" viewBox="0 0 20 20" fill="none" xmlns="http://www.w3.org/2000/svg">
<path fill-rule="evenodd" clip-rule="evenodd" d="M0.599609 3.0999C0.599609 1.60873 1.80844 0.399902 3.29961 0.399902H9.89961C11.3908 0.399902 12.5996 1.60873 12.5996 3.0999V5.4999C12.5996 5.99696 12.1967 6.3999 11.6996 6.3999C11.2026 6.3999 10.7996 5.99696 10.7996 5.4999V3.0999C10.7996 2.60285 10.3967 2.1999 9.89961 2.1999H3.29961C2.80255 2.1999 2.39961 2.60285 2.39961 3.0999V16.8999C2.39961 17.397 2.80255 17.7999 3.29961 17.7999H9.89961C10.3967 17.7999 10.7996 17.397 10.7996 16.8999V14.4999C10.7996 14.0028 11.2026 13.5999 11.6996 13.5999C12.1967 13.5999 12.5996 14.0028 12.5996 14.4999V16.8999C12.5996 18.3911 11.3908 19.5999 9.89961 19.5999H3.29961C1.80844 19.5999 0.599609 18.3911 0.599609 16.8999V3.0999Z" fill="#FF725E"/>
<path fill-rule="evenodd" clip-rule="evenodd" d="M19.7996 9.9999C19.7996 9.50285 19.3967 9.0999 18.8996 9.0999H7.44497L8.70168 7.96887C9.07114 7.63635 9.10109 7.06729 8.76857 6.69783C8.43606 6.32837 7.867 6.29842 7.49754 6.63094L4.49754 9.33094C4.3079 9.50162 4.19961 9.74476 4.19961 9.9999C4.19961 10.255 4.3079 10.4982 4.49754 10.6689L7.49754 13.3689C7.867 13.7014 8.43606 13.6714 8.76857 13.302C9.10109 12.9325 9.07114 12.3635 8.70168 12.0309L7.44497 10.8999H18.8996C19.3967 10.8999 19.7996 10.497 19.7996 9.9999Z" fill="#FF725E"/>
</svg>
