<svg width="14" height="17" viewBox="0 0 14 17" fill="none" xmlns="http://www.w3.org/2000/svg">
<path d="M6.99748 6.375C8.75033 6.375 10.1713 4.94791 10.1713 3.1875C10.1713 1.42709 8.75033 0 6.99748 0C5.24463 0 3.82366 1.42709 3.82366 3.1875C3.82366 4.94791 5.24463 6.375 6.99748 6.375Z" fill="#8281F8"/>
<path d="M0.0840306 13.2744C-0.122145 13.8142 0.0620022 14.4192 0.516757 14.7736C2.30717 16.1692 4.55578 17 6.9976 17C9.44192 17 11.6926 16.1675 13.4839 14.7694C13.9385 14.4146 14.1222 13.8095 13.9157 13.2698C12.8479 10.48 10.1546 8.5 7.00072 8.5C3.84516 8.5 1.15056 10.4822 0.0840306 13.2744Z" fill="#8281F8"/>
</svg>
