<svg width="18" height="18" viewBox="0 0 18 18" fill="none" xmlns="http://www.w3.org/2000/svg">
<path fill-rule="evenodd" clip-rule="evenodd" d="M8.85669 0.875C8.09288 0.875 7.44102 1.42721 7.31545 2.18063L7.23916 2.63835C7.20014 2.87246 7.03089 3.06173 6.80862 3.14495C6.67342 3.19558 6.54044 3.25075 6.40987 3.31029C6.19382 3.4088 5.94018 3.39469 5.74696 3.25668L5.36916 2.98682C4.74762 2.54286 3.89622 2.61332 3.35612 3.15342L3.15344 3.3561C2.61334 3.8962 2.54288 4.7476 2.98683 5.36914L3.25669 5.74694C3.3947 5.94016 3.40881 6.1938 3.3103 6.40985C3.25076 6.54042 3.19559 6.67341 3.14496 6.80861C3.06173 7.03088 2.87246 7.20013 2.63835 7.23915L2.18063 7.31544C1.42721 7.44101 0.875 8.09286 0.875 8.85668V9.14331C0.875 9.90712 1.42721 10.559 2.18063 10.6846L2.63835 10.7608C2.87246 10.7999 3.06173 10.9691 3.14495 11.1914C3.19558 11.3266 3.25075 11.4596 3.31029 11.5901C3.4088 11.8062 3.39469 12.0598 3.25667 12.253L2.9868 12.6309C2.54284 13.2524 2.6133 14.1038 3.1534 14.6439L3.35608 14.8466C3.89618 15.3867 4.74758 15.4571 5.36912 15.0132L5.74694 14.7433C5.94016 14.6053 6.1938 14.5912 6.40985 14.6897C6.54043 14.7492 6.67341 14.8044 6.80861 14.855C7.03088 14.9383 7.20013 15.1275 7.23915 15.3616L7.31544 15.8194C7.44101 16.5728 8.09286 17.125 8.85668 17.125H9.14331C9.90712 17.125 10.559 16.5728 10.6846 15.8194L10.7608 15.3617C10.7999 15.1275 10.9691 14.9383 11.1914 14.855C11.3266 14.8044 11.4596 14.7492 11.5901 14.6897C11.8062 14.5912 12.0598 14.6053 12.253 14.7433L12.6308 15.0132C13.2524 15.4571 14.1038 15.3867 14.6439 14.8466L14.8466 14.6439C15.3867 14.1038 15.4571 13.2524 15.0132 12.6309L14.7433 12.2531C14.6053 12.0598 14.5912 11.8062 14.6897 11.5902C14.7492 11.4596 14.8044 11.3266 14.855 11.1914C14.9383 10.9691 15.1275 10.7999 15.3616 10.7609L15.8194 10.6846C16.5728 10.559 17.125 9.90714 17.125 9.14332V8.85669C17.125 8.09288 16.5728 7.44102 15.8194 7.31545L15.3617 7.23916C15.1275 7.20014 14.9383 7.03089 14.855 6.80862C14.8044 6.67342 14.7492 6.54045 14.6897 6.40988C14.5912 6.19383 14.6053 5.94019 14.7433 5.74697L15.0132 5.36914C15.4572 4.7476 15.3867 3.8962 14.8466 3.3561L14.6439 3.15342C14.1038 2.61332 13.2524 2.54286 12.6309 2.98681L12.2531 3.25669C12.0598 3.3947 11.8062 3.40881 11.5901 3.3103C11.4596 3.25076 11.3266 3.19559 11.1914 3.14496C10.9691 3.06173 10.7999 2.87246 10.7609 2.63835L10.6846 2.18063C10.559 1.42721 9.90714 0.875 9.14332 0.875H8.85669ZM9 12.125C10.7259 12.125 12.125 10.7259 12.125 9C12.125 7.27411 10.7259 5.875 9 5.875C7.27411 5.875 5.875 7.27411 5.875 9C5.875 10.7259 7.27411 12.125 9 12.125Z" fill="#8281F8"/>
</svg>
